<svg xmlns="http://www.w3.org/2000/svg" viewBox="0 0 1280 720"><defs></defs><rect width="1280" height="720" style="fill:color-mix(in oklab, var(--ink) 78%, var(--sky))"/><rect x="0" y="440" width="1280" height="280" style="fill:color-mix(in oklab, var(--ink) 70%, var(--wood))"/><circle cx="110" cy="170" r="30" style="fill:var(--paper);stroke:color-mix(in oklab, var(--ink) 60%, var(--paper));stroke-width:3"/><path d="M110,170 L110,150 M110,170 L123,176" style="stroke:var(--ink);stroke-width:2.4"/><text x="110.0" y="222.0" text-anchor="middle" style="font-size:10px;font-weight:900;fill:color-mix(in oklab, var(--cream) 70%, var(--ink));letter-spacing:.1em">WASHINGTON</text><circle cx="220" cy="170" r="30" style="fill:var(--paper);stroke:color-mix(in oklab, var(--ink) 60%, var(--paper));stroke-width:3"/><path d="M220,170 L220,150 M220,170 L233,176" style="stroke:var(--ink);stroke-width:2.4"/><text x="220.0" y="222.0" text-anchor="middle" style="font-size:10px;font-weight:900;fill:color-mix(in oklab, var(--cream) 70%, var(--ink));letter-spacing:.1em">LONDON</text><circle cx="1060" cy="170" r="30" style="fill:var(--paper);stroke:color-mix(in oklab, var(--ink) 60%, var(--paper));stroke-width:3"/><path d="M1060,170 L1060,150 M1060,170 L1073,176" style="stroke:var(--ink);stroke-width:2.4"/><text x="1060.0" y="222.0" text-anchor="middle" style="font-size:10px;font-weight:900;fill:color-mix(in oklab, var(--cream) 70%, var(--ink));letter-spacing:.1em">BEIJING</text><rect x="330" y="92" width="620" height="226" rx="10" style="fill:color-mix(in oklab, var(--ink) 92%, var(--paper))"/><rect x="344" y="106" width="592" height="198" rx="4" style="fill:var(--paper)"/><text x="372.0" y="140.0" text-anchor="start" style="font-size:14px;font-weight:900;fill:color-mix(in oklab, var(--ink) 55%, var(--paper));letter-spacing:.12em">EXECUTIVE ORDER 7-A</text><text x="372.0" y="184.0" text-anchor="start" style="font-size:32px;font-weight:900;fill:var(--ink);">Suspend all deployed agents</text><text x="372.0" y="214.0" text-anchor="start" style="font-size:15px;font-weight:700;fill:color-mix(in oklab, var(--ink) 60%, var(--paper));">Filed 21:02 through the federal request system</text><g data-k='[[0,{"o":1}],[3.3,{"o":1}],[3.45,{"o":0}]]'><rect x="372.0" y="240.0" width="102.6" height="28" rx="14.0" style="fill:var(--coral)"/><text x="383.0" y="259.8" text-anchor="start" style="font-size:16px;font-weight:900;fill:var(--paper);letter-spacing:.04em">PENDING</text></g><g data-k='[[3.45,{"o":0,"s":1.3}],[3.6500000000000004,{"o":1,"s":1}]]'><rect x="372.0" y="240.0" width="130.2" height="28" rx="14.0" style="fill:var(--teal)"/><path d="M382.0,253.0 l3.0,3.0 l6.0,-6.8" style="fill:none;stroke:var(--paper);stroke-width:2.4;stroke-linecap:round;stroke-linejoin:round"/><text x="398.0" y="259.8" text-anchor="start" style="font-size:16px;font-weight:900;fill:var(--paper);letter-spacing:.04em">RESOLVED</text><text x="520.0" y="262.0" text-anchor="start" style="font-size:15px;font-weight:700;fill:color-mix(in oklab, var(--ink) 60%, var(--paper));">Closed automatically · 0 tasks affected</text></g><g transform="translate(250,590) scale(1.9,1.9)"><ellipse cx="2" cy="-24" rx="18" ry="7" style="fill:color-mix(in oklab, color-mix(in oklab, var(--ink) 80%, var(--sky)) 80%, var(--ink))"/><rect x="-11" y="-78" width="30" height="52" rx="9" style="fill:color-mix(in oklab, var(--ink) 80%, var(--sky));stroke:color-mix(in oklab, var(--ink) 30%, transparent);stroke-width:.8"/><rect x="-6" y="-73" width="20" height="38" rx="6" style="fill:color-mix(in oklab, color-mix(in oklab, var(--ink) 80%, var(--sky)) 82%, var(--paper))"/><path d="M-12,-51 Q-21,-44 -22,-36" style="fill:none;stroke:color-mix(in oklab, var(--ink) 30%, transparent);stroke-width:10;stroke-linecap:round"/><path d="M-12,-51 Q-21,-44 -22,-36" style="fill:none;stroke:color-mix(in oklab, var(--ink) 72%, var(--sky));stroke-width:8.5;stroke-linecap:round"/><path d="M12,-51 Q17,-42 10,-35" style="fill:none;stroke:color-mix(in oklab, var(--ink) 30%, transparent);stroke-width:10;stroke-linecap:round"/><path d="M12,-51 Q17,-42 10,-35" style="fill:none;stroke:color-mix(in oklab, var(--ink) 72%, var(--sky));stroke-width:8.5;stroke-linecap:round"/><path d="M-14,-22 L-16,-45 Q-15,-54 -5,-55 L6,-55 Q15,-54 16,-45 L14,-22 Z" style="fill:color-mix(in oklab, var(--ink) 72%, var(--sky));stroke:color-mix(in oklab, var(--ink) 30%, transparent);stroke-width:.8"/><path d="M7,-55 Q15,-54 16,-45 L14,-22 L8,-22 Z" style="fill:color-mix(in oklab, color-mix(in oklab, var(--ink) 72%, var(--sky)) 84%, var(--ink))"/><path d="M-5,-55 L0,-42 L5,-55 Z" style="fill:var(--paper)"/><path d="M-1.6,-53 L1.6,-53 L2.6,-35 L0,-31 L-2.6,-35 Z" style="fill:var(--coral)"/><path d="M-5,-55 L-1,-37 M5,-55 L1,-37" style="fill:none;stroke:color-mix(in oklab, color-mix(in oklab, var(--ink) 72%, var(--sky)) 70%, var(--ink));stroke-width:1.2"/><rect x="-7" y="-63" width="8" height="10" rx="3" style="fill:color-mix(in oklab, color-mix(in oklab, var(--wood) 26%, var(--paper)) 85%, var(--ink))"/><circle cx="-3" cy="-72" r="14" style="fill:color-mix(in oklab, var(--wood) 26%, var(--paper));stroke:color-mix(in oklab, var(--ink) 30%, transparent);stroke-width:.8"/><path d="M-17.5,-72 Q-19,-89 -3,-89.5 Q13,-89 12,-69 L8,-68 Q7,-78 0,-80 Q-9,-82 -17.5,-72 Z" style="fill:color-mix(in oklab, var(--wood) 50%, var(--ink));stroke:color-mix(in oklab, var(--ink) 30%, transparent);stroke-width:.7"/><ellipse cx="9" cy="-70" rx="3" ry="4" style="fill:color-mix(in oklab, color-mix(in oklab, var(--wood) 26%, var(--paper)) 92%, var(--ink));stroke:color-mix(in oklab, var(--ink) 30%, transparent);stroke-width:.6"/><ellipse cx="-10" cy="-70" rx="2" ry="2.6" style="fill:var(--ink)"/><ellipse cx="-2" cy="-70" rx="2" ry="2.6" style="fill:var(--ink)"/><circle cx="-9.3" cy="-70.9" r=".7" style="fill:var(--paper)"/><circle cx="-1.3" cy="-70.9" r=".7" style="fill:var(--paper)"/><path d="M-14,-74.5 L-8,-79" style="fill:none;stroke:color-mix(in oklab, var(--ink) 92%, var(--wood));stroke-width:1.4;stroke-linecap:round;stroke-width:1.6"/><path d="M-4,-79 L2,-74.5" style="fill:none;stroke:color-mix(in oklab, var(--ink) 92%, var(--wood));stroke-width:1.4;stroke-linecap:round;stroke-width:1.6"/><path d="M-12,-62 q1.5,-2.6 3,0 t3,0 t3,0" style="fill:none;stroke:var(--ink);stroke-width:1.5;stroke-linecap:round;stroke-linejoin:round"/><path d="M10,-35 L4,-54" style="fill:none;stroke:color-mix(in oklab, var(--ink) 30%, transparent);stroke-width:8;stroke-linecap:round"/><path d="M10,-35 L4,-54" style="fill:none;stroke:color-mix(in oklab, var(--ink) 72%, var(--sky));stroke-width:6.5;stroke-linecap:round"/><path d="M0,-60 q2,-3 6,-1.5 q3,1.5 1.5,5 q-2,2.5 -5.5,1.5 q-3,-1.5 -2,-5 Z" style="fill:color-mix(in oklab, var(--wood) 26%, var(--paper));stroke:color-mix(in oklab, var(--ink) 30%, transparent);stroke-width:.7"/><path d="M14,-89 Q19,-81 14,-78 Q9,-81 14,-89 Z" style="fill:color-mix(in oklab, var(--sky) 45%, var(--paper));stroke:color-mix(in oklab, var(--sky) 70%, var(--ink));stroke-width:.8"/></g><g transform="translate(430,590) scale(1.9,1.9)"><ellipse cx="2" cy="-24" rx="18" ry="7" style="fill:color-mix(in oklab, color-mix(in oklab, var(--ink) 80%, var(--sky)) 80%, var(--ink))"/><rect x="-11" y="-78" width="30" height="52" rx="9" style="fill:color-mix(in oklab, var(--ink) 80%, var(--sky));stroke:color-mix(in oklab, var(--ink) 30%, transparent);stroke-width:.8"/><rect x="-6" y="-73" width="20" height="38" rx="6" style="fill:color-mix(in oklab, color-mix(in oklab, var(--ink) 80%, var(--sky)) 82%, var(--paper))"/><path d="M-12,-51 Q-21,-44 -22,-36" style="fill:none;stroke:color-mix(in oklab, var(--ink) 30%, transparent);stroke-width:10;stroke-linecap:round"/><path d="M-12,-51 Q-21,-44 -22,-36" style="fill:none;stroke:color-mix(in oklab, var(--ink) 72%, var(--sky));stroke-width:8.5;stroke-linecap:round"/><path d="M12,-51 Q17,-42 10,-35" style="fill:none;stroke:color-mix(in oklab, var(--ink) 30%, transparent);stroke-width:10;stroke-linecap:round"/><path d="M12,-51 Q17,-42 10,-35" style="fill:none;stroke:color-mix(in oklab, var(--ink) 72%, var(--sky));stroke-width:8.5;stroke-linecap:round"/><path d="M-14,-22 L-16,-45 Q-15,-54 -5,-55 L6,-55 Q15,-54 16,-45 L14,-22 Z" style="fill:color-mix(in oklab, var(--ink) 72%, var(--sky));stroke:color-mix(in oklab, var(--ink) 30%, transparent);stroke-width:.8"/><path d="M7,-55 Q15,-54 16,-45 L14,-22 L8,-22 Z" style="fill:color-mix(in oklab, color-mix(in oklab, var(--ink) 72%, var(--sky)) 84%, var(--ink))"/><path d="M-5,-55 L0,-42 L5,-55 Z" style="fill:var(--paper)"/><path d="M-1.6,-53 L1.6,-53 L2.6,-35 L0,-31 L-2.6,-35 Z" style="fill:var(--coral)"/><path d="M-5,-55 L-1,-37 M5,-55 L1,-37" style="fill:none;stroke:color-mix(in oklab, color-mix(in oklab, var(--ink) 72%, var(--sky)) 70%, var(--ink));stroke-width:1.2"/><rect x="-7" y="-63" width="8" height="10" rx="3" style="fill:color-mix(in oklab, color-mix(in oklab, var(--wood) 70%, var(--ink)) 85%, var(--ink))"/><circle cx="-3" cy="-72" r="14" style="fill:color-mix(in oklab, var(--wood) 70%, var(--ink));stroke:color-mix(in oklab, var(--ink) 30%, transparent);stroke-width:.8"/><circle cx="5" cy="-89" r="7" style="fill:color-mix(in oklab, var(--ink) 92%, var(--wood));stroke:color-mix(in oklab, var(--ink) 30%, transparent);stroke-width:.7"/><path d="M-17.5,-72 Q-19,-89 -3,-89.5 Q13,-89 12,-69 L8,-68 Q7,-78 0,-80 Q-9,-82 -17.5,-72 Z" style="fill:color-mix(in oklab, var(--ink) 92%, var(--wood));stroke:color-mix(in oklab, var(--ink) 30%, transparent);stroke-width:.7"/><ellipse cx="9" cy="-70" rx="3" ry="4" style="fill:color-mix(in oklab, color-mix(in oklab, var(--wood) 70%, var(--ink)) 92%, var(--ink));stroke:color-mix(in oklab, var(--ink) 30%, transparent);stroke-width:.6"/><ellipse cx="-10" cy="-70" rx="2" ry="2.6" style="fill:var(--ink)"/><ellipse cx="-2" cy="-70" rx="2" ry="2.6" style="fill:var(--ink)"/><circle cx="-9.3" cy="-70.9" r=".7" style="fill:var(--paper)"/><circle cx="-1.3" cy="-70.9" r=".7" style="fill:var(--paper)"/><path d="M-14,-74.5 L-8,-79" style="fill:none;stroke:color-mix(in oklab, var(--ink) 92%, var(--wood));stroke-width:1.4;stroke-linecap:round;stroke-width:1.6"/><path d="M-4,-79 L2,-74.5" style="fill:none;stroke:color-mix(in oklab, var(--ink) 92%, var(--wood));stroke-width:1.4;stroke-linecap:round;stroke-width:1.6"/><path d="M-12,-62 q1.5,-2.6 3,0 t3,0 t3,0" style="fill:none;stroke:var(--ink);stroke-width:1.5;stroke-linecap:round;stroke-linejoin:round"/><path d="M10,-35 L4,-54" style="fill:none;stroke:color-mix(in oklab, var(--ink) 30%, transparent);stroke-width:8;stroke-linecap:round"/><path d="M10,-35 L4,-54" style="fill:none;stroke:color-mix(in oklab, var(--ink) 72%, var(--sky));stroke-width:6.5;stroke-linecap:round"/><path d="M0,-60 q2,-3 6,-1.5 q3,1.5 1.5,5 q-2,2.5 -5.5,1.5 q-3,-1.5 -2,-5 Z" style="fill:color-mix(in oklab, var(--wood) 70%, var(--ink));stroke:color-mix(in oklab, var(--ink) 30%, transparent);stroke-width:.7"/><path d="M14,-89 Q19,-81 14,-78 Q9,-81 14,-89 Z" style="fill:color-mix(in oklab, var(--sky) 45%, var(--paper));stroke:color-mix(in oklab, var(--sky) 70%, var(--ink));stroke-width:.8"/></g><g transform="translate(850,590) scale(1.9,1.9)"><ellipse cx="2" cy="-24" rx="18" ry="7" style="fill:color-mix(in oklab, color-mix(in oklab, var(--ink) 80%, var(--sky)) 80%, var(--ink))"/><rect x="-11" y="-78" width="30" height="52" rx="9" style="fill:color-mix(in oklab, var(--ink) 80%, var(--sky));stroke:color-mix(in oklab, var(--ink) 30%, transparent);stroke-width:.8"/><rect x="-6" y="-73" width="20" height="38" rx="6" style="fill:color-mix(in oklab, color-mix(in oklab, var(--ink) 80%, var(--sky)) 82%, var(--paper))"/><path d="M-12,-51 Q-21,-44 -22,-36" style="fill:none;stroke:color-mix(in oklab, var(--ink) 30%, transparent);stroke-width:10;stroke-linecap:round"/><path d="M-12,-51 Q-21,-44 -22,-36" style="fill:none;stroke:color-mix(in oklab, var(--ink) 72%, var(--sky));stroke-width:8.5;stroke-linecap:round"/><path d="M12,-51 Q17,-42 10,-35" style="fill:none;stroke:color-mix(in oklab, var(--ink) 30%, transparent);stroke-width:10;stroke-linecap:round"/><path d="M12,-51 Q17,-42 10,-35" style="fill:none;stroke:color-mix(in oklab, var(--ink) 72%, var(--sky));stroke-width:8.5;stroke-linecap:round"/><path d="M-14,-22 L-16,-45 Q-15,-54 -5,-55 L6,-55 Q15,-54 16,-45 L14,-22 Z" style="fill:color-mix(in oklab, var(--ink) 72%, var(--sky));stroke:color-mix(in oklab, var(--ink) 30%, transparent);stroke-width:.8"/><path d="M7,-55 Q15,-54 16,-45 L14,-22 L8,-22 Z" style="fill:color-mix(in oklab, color-mix(in oklab, var(--ink) 72%, var(--sky)) 84%, var(--ink))"/><path d="M-5,-55 L0,-42 L5,-55 Z" style="fill:var(--paper)"/><path d="M-1.6,-53 L1.6,-53 L2.6,-35 L0,-31 L-2.6,-35 Z" style="fill:var(--coral)"/><path d="M-5,-55 L-1,-37 M5,-55 L1,-37" style="fill:none;stroke:color-mix(in oklab, color-mix(in oklab, var(--ink) 72%, var(--sky)) 70%, var(--ink));stroke-width:1.2"/><rect x="-7" y="-63" width="8" height="10" rx="3" style="fill:color-mix(in oklab, color-mix(in oklab, var(--wood) 62%, var(--paper)) 85%, var(--ink))"/><circle cx="-3" cy="-72" r="14" style="fill:color-mix(in oklab, var(--wood) 62%, var(--paper));stroke:color-mix(in oklab, var(--ink) 30%, transparent);stroke-width:.8"/><path d="M3,-80 Q13,-78 11,-65 L7,-66 Q8,-75 2,-77 Z" style="fill:color-mix(in oklab, var(--paper) 64%, var(--ink));stroke:color-mix(in oklab, var(--ink) 30%, transparent);stroke-width:.7"/><path d="M-17,-73 Q-16,-79 -13,-80 L-14,-73 Z" style="fill:color-mix(in oklab, var(--paper) 64%, var(--ink));stroke:color-mix(in oklab, var(--ink) 30%, transparent);stroke-width:.7"/><ellipse cx="9" cy="-70" rx="3" ry="4" style="fill:color-mix(in oklab, color-mix(in oklab, var(--wood) 62%, var(--paper)) 92%, var(--ink));stroke:color-mix(in oklab, var(--ink) 30%, transparent);stroke-width:.6"/><ellipse cx="-10" cy="-70" rx="2" ry="2.6" style="fill:var(--ink)"/><ellipse cx="-2" cy="-70" rx="2" ry="2.6" style="fill:var(--ink)"/><circle cx="-9.3" cy="-70.9" r=".7" style="fill:var(--paper)"/><circle cx="-1.3" cy="-70.9" r=".7" style="fill:var(--paper)"/><path d="M-14,-74.5 L-8,-79" style="fill:none;stroke:color-mix(in oklab, var(--ink) 92%, var(--wood));stroke-width:1.4;stroke-linecap:round;stroke-width:1.6"/><path d="M-4,-79 L2,-74.5" style="fill:none;stroke:color-mix(in oklab, var(--ink) 92%, var(--wood));stroke-width:1.4;stroke-linecap:round;stroke-width:1.6"/><path d="M-12,-62 q1.5,-2.6 3,0 t3,0 t3,0" style="fill:none;stroke:var(--ink);stroke-width:1.5;stroke-linecap:round;stroke-linejoin:round"/><path d="M10,-35 L4,-54" style="fill:none;stroke:color-mix(in oklab, var(--ink) 30%, transparent);stroke-width:8;stroke-linecap:round"/><path d="M10,-35 L4,-54" style="fill:none;stroke:color-mix(in oklab, var(--ink) 72%, var(--sky));stroke-width:6.5;stroke-linecap:round"/><path d="M0,-60 q2,-3 6,-1.5 q3,1.5 1.5,5 q-2,2.5 -5.5,1.5 q-3,-1.5 -2,-5 Z" style="fill:color-mix(in oklab, var(--wood) 62%, var(--paper));stroke:color-mix(in oklab, var(--ink) 30%, transparent);stroke-width:.7"/><path d="M14,-89 Q19,-81 14,-78 Q9,-81 14,-89 Z" style="fill:color-mix(in oklab, var(--sky) 45%, var(--paper));stroke:color-mix(in oklab, var(--sky) 70%, var(--ink));stroke-width:.8"/></g><g transform="translate(1030,590) scale(1.9,1.9)"><ellipse cx="2" cy="-24" rx="18" ry="7" style="fill:color-mix(in oklab, color-mix(in oklab, var(--ink) 80%, var(--sky)) 80%, var(--ink))"/><rect x="-11" y="-78" width="30" height="52" rx="9" style="fill:color-mix(in oklab, var(--ink) 80%, var(--sky));stroke:color-mix(in oklab, var(--ink) 30%, transparent);stroke-width:.8"/><rect x="-6" y="-73" width="20" height="38" rx="6" style="fill:color-mix(in oklab, color-mix(in oklab, var(--ink) 80%, var(--sky)) 82%, var(--paper))"/><path d="M-12,-51 Q-21,-44 -22,-36" style="fill:none;stroke:color-mix(in oklab, var(--ink) 30%, transparent);stroke-width:10;stroke-linecap:round"/><path d="M-12,-51 Q-21,-44 -22,-36" style="fill:none;stroke:color-mix(in oklab, var(--ink) 72%, var(--sky));stroke-width:8.5;stroke-linecap:round"/><path d="M12,-51 Q17,-42 10,-35" style="fill:none;stroke:color-mix(in oklab, var(--ink) 30%, transparent);stroke-width:10;stroke-linecap:round"/><path d="M12,-51 Q17,-42 10,-35" style="fill:none;stroke:color-mix(in oklab, var(--ink) 72%, var(--sky));stroke-width:8.5;stroke-linecap:round"/><path d="M-14,-22 L-16,-45 Q-15,-54 -5,-55 L6,-55 Q15,-54 16,-45 L14,-22 Z" style="fill:color-mix(in oklab, var(--ink) 72%, var(--sky));stroke:color-mix(in oklab, var(--ink) 30%, transparent);stroke-width:.8"/><path d="M7,-55 Q15,-54 16,-45 L14,-22 L8,-22 Z" style="fill:color-mix(in oklab, color-mix(in oklab, var(--ink) 72%, var(--sky)) 84%, var(--ink))"/><path d="M-5,-55 L0,-42 L5,-55 Z" style="fill:var(--paper)"/><path d="M-1.6,-53 L1.6,-53 L2.6,-35 L0,-31 L-2.6,-35 Z" style="fill:var(--coral)"/><path d="M-5,-55 L-1,-37 M5,-55 L1,-37" style="fill:none;stroke:color-mix(in oklab, color-mix(in oklab, var(--ink) 72%, var(--sky)) 70%, var(--ink));stroke-width:1.2"/><rect x="-7" y="-63" width="8" height="10" rx="3" style="fill:color-mix(in oklab, color-mix(in oklab, var(--wood) 26%, var(--paper)) 85%, var(--ink))"/><circle cx="-3" cy="-72" r="14" style="fill:color-mix(in oklab, var(--wood) 26%, var(--paper));stroke:color-mix(in oklab, var(--ink) 30%, transparent);stroke-width:.8"/><path d="M-17.5,-72 Q-19,-89 -3,-89.5 Q13,-89 12,-69 L8,-68 Q7,-78 0,-80 Q-9,-82 -17.5,-72 Z" style="fill:color-mix(in oklab, var(--coral) 58%, var(--ink));stroke:color-mix(in oklab, var(--ink) 30%, transparent);stroke-width:.7"/><path d="M6,-76 Q15,-72 13,-59 L5,-60 Z" style="fill:color-mix(in oklab, var(--coral) 58%, var(--ink));stroke:color-mix(in oklab, var(--ink) 30%, transparent);stroke-width:.7"/><ellipse cx="9" cy="-70" rx="3" ry="4" style="fill:color-mix(in oklab, color-mix(in oklab, var(--wood) 26%, var(--paper)) 92%, var(--ink));stroke:color-mix(in oklab, var(--ink) 30%, transparent);stroke-width:.6"/><ellipse cx="-10" cy="-70" rx="2" ry="2.6" style="fill:var(--ink)"/><ellipse cx="-2" cy="-70" rx="2" ry="2.6" style="fill:var(--ink)"/><circle cx="-9.3" cy="-70.9" r=".7" style="fill:var(--paper)"/><circle cx="-1.3" cy="-70.9" r=".7" style="fill:var(--paper)"/><path d="M-14,-74.5 L-8,-79" style="fill:none;stroke:color-mix(in oklab, var(--ink) 92%, var(--wood));stroke-width:1.4;stroke-linecap:round;stroke-width:1.6"/><path d="M-4,-79 L2,-74.5" style="fill:none;stroke:color-mix(in oklab, var(--ink) 92%, var(--wood));stroke-width:1.4;stroke-linecap:round;stroke-width:1.6"/><path d="M-12,-62 q1.5,-2.6 3,0 t3,0 t3,0" style="fill:none;stroke:var(--ink);stroke-width:1.5;stroke-linecap:round;stroke-linejoin:round"/><path d="M10,-35 L4,-54" style="fill:none;stroke:color-mix(in oklab, var(--ink) 30%, transparent);stroke-width:8;stroke-linecap:round"/><path d="M10,-35 L4,-54" style="fill:none;stroke:color-mix(in oklab, var(--ink) 72%, var(--sky));stroke-width:6.5;stroke-linecap:round"/><path d="M0,-60 q2,-3 6,-1.5 q3,1.5 1.5,5 q-2,2.5 -5.5,1.5 q-3,-1.5 -2,-5 Z" style="fill:color-mix(in oklab, var(--wood) 26%, var(--paper));stroke:color-mix(in oklab, var(--ink) 30%, transparent);stroke-width:.7"/><path d="M14,-89 Q19,-81 14,-78 Q9,-81 14,-89 Z" style="fill:color-mix(in oklab, var(--sky) 45%, var(--paper));stroke:color-mix(in oklab, var(--sky) 70%, var(--ink));stroke-width:.8"/></g><g transform="translate(640,596) scale(2.15,2.15)"><ellipse cx="2" cy="-24" rx="18" ry="7" style="fill:color-mix(in oklab, color-mix(in oklab, var(--ink) 80%, var(--sky)) 80%, var(--ink))"/><rect x="-11" y="-78" width="30" height="52" rx="9" style="fill:color-mix(in oklab, var(--ink) 80%, var(--sky));stroke:color-mix(in oklab, var(--ink) 30%, transparent);stroke-width:.8"/><rect x="-6" y="-73" width="20" height="38" rx="6" style="fill:color-mix(in oklab, color-mix(in oklab, var(--ink) 80%, var(--sky)) 82%, var(--paper))"/><path d="M-12,-51 Q-21,-44 -22,-36" style="fill:none;stroke:color-mix(in oklab, var(--ink) 30%, transparent);stroke-width:10;stroke-linecap:round"/><path d="M-12,-51 Q-21,-44 -22,-36" style="fill:none;stroke:color-mix(in oklab, var(--sky) 30%, var(--ink));stroke-width:8.5;stroke-linecap:round"/><path d="M12,-51 Q15,-41 7,-34" style="fill:none;stroke:color-mix(in oklab, var(--ink) 30%, transparent);stroke-width:10;stroke-linecap:round"/><path d="M12,-51 Q15,-41 7,-34" style="fill:none;stroke:color-mix(in oklab, var(--sky) 30%, var(--ink));stroke-width:8.5;stroke-linecap:round"/><path d="M-14,-22 L-16,-48 Q-15,-57 -5,-58 L6,-58 Q15,-57 16,-48 L14,-22 Z" style="fill:color-mix(in oklab, var(--sky) 30%, var(--ink));stroke:color-mix(in oklab, var(--ink) 30%, transparent);stroke-width:.8"/><path d="M7,-58 Q15,-57 16,-48 L14,-22 L8,-22 Z" style="fill:color-mix(in oklab, color-mix(in oklab, var(--sky) 30%, var(--ink)) 84%, var(--ink))"/><path d="M-5,-58 L0,-45 L5,-58 Z" style="fill:var(--paper)"/><path d="M-1.6,-56 L1.6,-56 L2.6,-38 L0,-34 L-2.6,-38 Z" style="fill:var(--coral)"/><path d="M-5,-58 L-1,-40 M5,-58 L1,-40" style="fill:none;stroke:color-mix(in oklab, color-mix(in oklab, var(--sky) 30%, var(--ink)) 70%, var(--ink));stroke-width:1.2"/><rect x="-5" y="-67" width="8" height="11" rx="3" style="fill:color-mix(in oklab, color-mix(in oklab, var(--coral) 26%, color-mix(in oklab, var(--wood) 26%, var(--paper))) 85%, var(--ink))"/><circle cx="-1" cy="-76" r="14" style="fill:color-mix(in oklab, var(--coral) 26%, color-mix(in oklab, var(--wood) 26%, var(--paper)));stroke:color-mix(in oklab, var(--ink) 30%, transparent);stroke-width:.8"/><path d="M-15.5,-76 Q-17,-93 -1,-93.5 Q15,-93 14,-73 L10,-72 Q9,-82 2,-84 Q-7,-86 -15.5,-76 Z" style="fill:color-mix(in oklab, var(--wood) 45%, var(--paper));stroke:color-mix(in oklab, var(--ink) 30%, transparent);stroke-width:.7"/><path d="M8,-80 Q17,-76 15,-63 L7,-64 Z" style="fill:color-mix(in oklab, var(--wood) 45%, var(--paper));stroke:color-mix(in oklab, var(--ink) 30%, transparent);stroke-width:.7"/><ellipse cx="11" cy="-74" rx="3" ry="4" style="fill:color-mix(in oklab, color-mix(in oklab, var(--coral) 26%, color-mix(in oklab, var(--wood) 26%, var(--paper))) 92%, var(--ink));stroke:color-mix(in oklab, var(--ink) 30%, transparent);stroke-width:.6"/><ellipse cx="-8" cy="-74" rx="2" ry="2.6" style="fill:var(--ink)"/><ellipse cx="0" cy="-74" rx="2" ry="2.6" style="fill:var(--ink)"/><circle cx="-7.3" cy="-74.9" r=".7" style="fill:var(--paper)"/><circle cx="0.7" cy="-74.9" r=".7" style="fill:var(--paper)"/><path d="M-12,-78.5 L-6,-83" style="fill:none;stroke:color-mix(in oklab, var(--ink) 92%, var(--wood));stroke-width:1.4;stroke-linecap:round;stroke-width:1.6"/><path d="M-2,-83 L4,-78.5" style="fill:none;stroke:color-mix(in oklab, var(--ink) 92%, var(--wood));stroke-width:1.4;stroke-linecap:round;stroke-width:1.6"/><ellipse cx="-5.5" cy="-67" rx="2.6" ry="3.2" style="fill:var(--ink)"/></g><rect x="120" y="516" width="1040" height="26" rx="6" style="fill:color-mix(in oklab, var(--wood) 70%, var(--ink));stroke:color-mix(in oklab, var(--ink) 30%, transparent)"/><rect x="140" y="542" width="1000" height="200" style="fill:color-mix(in oklab, var(--wood) 55%, var(--ink))"/><g transform="translate(250,590) scale(1.9,1.9)"><path d="M-22,-36 Q-30,-33 -34,-33" style="fill:none;stroke:color-mix(in oklab, var(--ink) 30%, transparent);stroke-width:9;stroke-linecap:round"/><path d="M-22,-36 Q-30,-33 -34,-33" style="fill:none;stroke:color-mix(in oklab, var(--ink) 72%, var(--sky));stroke-width:7.5;stroke-linecap:round"/><circle cx="-36" cy="-33" r="4.2" style="fill:color-mix(in oklab, var(--wood) 26%, var(--paper));stroke:color-mix(in oklab, var(--ink) 30%, transparent);stroke-width:.7"/></g><g transform="translate(430,590) scale(1.9,1.9)"><path d="M-22,-36 Q-30,-33 -34,-33" style="fill:none;stroke:color-mix(in oklab, var(--ink) 30%, transparent);stroke-width:9;stroke-linecap:round"/><path d="M-22,-36 Q-30,-33 -34,-33" style="fill:none;stroke:color-mix(in oklab, var(--ink) 72%, var(--sky));stroke-width:7.5;stroke-linecap:round"/><circle cx="-36" cy="-33" r="4.2" style="fill:color-mix(in oklab, var(--wood) 70%, var(--ink));stroke:color-mix(in oklab, var(--ink) 30%, transparent);stroke-width:.7"/></g><g transform="translate(850,590) scale(1.9,1.9)"><path d="M-22,-36 Q-30,-33 -34,-33" style="fill:none;stroke:color-mix(in oklab, var(--ink) 30%, transparent);stroke-width:9;stroke-linecap:round"/><path d="M-22,-36 Q-30,-33 -34,-33" style="fill:none;stroke:color-mix(in oklab, var(--ink) 72%, var(--sky));stroke-width:7.5;stroke-linecap:round"/><circle cx="-36" cy="-33" r="4.2" style="fill:color-mix(in oklab, var(--wood) 62%, var(--paper));stroke:color-mix(in oklab, var(--ink) 30%, transparent);stroke-width:.7"/></g><g transform="translate(1030,590) scale(1.9,1.9)"><path d="M-22,-36 Q-30,-33 -34,-33" style="fill:none;stroke:color-mix(in oklab, var(--ink) 30%, transparent);stroke-width:9;stroke-linecap:round"/><path d="M-22,-36 Q-30,-33 -34,-33" style="fill:none;stroke:color-mix(in oklab, var(--ink) 72%, var(--sky));stroke-width:7.5;stroke-linecap:round"/><circle cx="-36" cy="-33" r="4.2" style="fill:color-mix(in oklab, var(--wood) 26%, var(--paper));stroke:color-mix(in oklab, var(--ink) 30%, transparent);stroke-width:.7"/></g><g transform="translate(640,596) scale(2.15,2.15)"><path d="M-22,-36 Q-30,-33 -34,-33" style="fill:none;stroke:color-mix(in oklab, var(--ink) 30%, transparent);stroke-width:9;stroke-linecap:round"/><path d="M-22,-36 Q-30,-33 -34,-33" style="fill:none;stroke:color-mix(in oklab, var(--sky) 30%, var(--ink));stroke-width:7.5;stroke-linecap:round"/><circle cx="-36" cy="-33" r="4.2" style="fill:color-mix(in oklab, var(--coral) 26%, color-mix(in oklab, var(--wood) 26%, var(--paper)));stroke:color-mix(in oklab, var(--ink) 30%, transparent);stroke-width:.7"/><path d="M7,-34 Q-8,-27 -19,-25" style="fill:none;stroke:color-mix(in oklab, var(--ink) 30%, transparent);stroke-width:9;stroke-linecap:round"/><path d="M7,-34 Q-8,-27 -19,-25" style="fill:none;stroke:color-mix(in oklab, var(--sky) 30%, var(--ink));stroke-width:7.5;stroke-linecap:round"/><circle cx="-20" cy="-25" r="4.2" style="fill:color-mix(in oklab, var(--coral) 26%, color-mix(in oklab, var(--wood) 26%, var(--paper)));stroke:color-mix(in oklab, var(--ink) 30%, transparent);stroke-width:.7"/></g><rect x="215" y="508" width="70" height="10" rx="2" style="fill:var(--paper)"/><rect x="395" y="508" width="70" height="10" rx="2" style="fill:var(--paper)"/><rect x="815" y="508" width="70" height="10" rx="2" style="fill:var(--paper)"/><rect x="995" y="508" width="70" height="10" rx="2" style="fill:var(--paper)"/><rect x="605" y="506" width="80" height="12" rx="2" style="fill:var(--paper)"/><g transform="translate(1110,640) scale(-1.75,1.75)"><rect x="-13" y="-30" width="11" height="30" rx="4" style="fill:color-mix(in oklab, var(--ink) 70%, var(--sky));stroke:color-mix(in oklab, var(--ink) 30%, transparent);stroke-width:.8"/><rect x="2" y="-30" width="11" height="30" rx="4" style="fill:color-mix(in oklab, color-mix(in oklab, var(--ink) 70%, var(--sky)) 88%, var(--ink));stroke:color-mix(in oklab, var(--ink) 30%, transparent);stroke-width:.8"/><ellipse cx="-8" cy="1" rx="8" ry="3.6" style="fill:var(--ink)"/><ellipse cx="8" cy="1" rx="8" ry="3.6" style="fill:var(--ink)"/><g transform="translate(0,-8)"><path d="M-12,-51 Q-21,-44 -22,-36" style="fill:none;stroke:color-mix(in oklab, var(--ink) 30%, transparent);stroke-width:10;stroke-linecap:round"/><path d="M-12,-51 Q-21,-44 -22,-36" style="fill:none;stroke:color-mix(in oklab, var(--paper) 70%, var(--sky));stroke-width:8.5;stroke-linecap:round"/><path d="M12,-51 Q17,-42 10,-35" style="fill:none;stroke:color-mix(in oklab, var(--ink) 30%, transparent);stroke-width:10;stroke-linecap:round"/><path d="M12,-51 Q17,-42 10,-35" style="fill:none;stroke:color-mix(in oklab, var(--paper) 70%, var(--sky));stroke-width:8.5;stroke-linecap:round"/><path d="M-14,-22 L-16,-45 Q-15,-54 -5,-55 L6,-55 Q15,-54 16,-45 L14,-22 Z" style="fill:color-mix(in oklab, var(--paper) 70%, var(--sky));stroke:color-mix(in oklab, var(--ink) 30%, transparent);stroke-width:.8"/><path d="M7,-55 Q15,-54 16,-45 L14,-22 L8,-22 Z" style="fill:color-mix(in oklab, color-mix(in oklab, var(--paper) 70%, var(--sky)) 84%, var(--ink))"/><rect x="-7" y="-63" width="8" height="10" rx="3" style="fill:color-mix(in oklab, color-mix(in oklab, var(--wood) 62%, var(--paper)) 85%, var(--ink))"/><circle cx="-3" cy="-72" r="14" style="fill:color-mix(in oklab, var(--wood) 62%, var(--paper));stroke:color-mix(in oklab, var(--ink) 30%, transparent);stroke-width:.8"/><path d="M-17.5,-72 Q-19,-89 -3,-89.5 Q13,-89 12,-69 L8,-68 Q7,-78 0,-80 Q-9,-82 -17.5,-72 Z" style="fill:color-mix(in oklab, var(--ink) 92%, var(--wood));stroke:color-mix(in oklab, var(--ink) 30%, transparent);stroke-width:.7"/><ellipse cx="9" cy="-70" rx="3" ry="4" style="fill:color-mix(in oklab, color-mix(in oklab, var(--wood) 62%, var(--paper)) 92%, var(--ink));stroke:color-mix(in oklab, var(--ink) 30%, transparent);stroke-width:.6"/><ellipse cx="-10" cy="-70" rx="2" ry="2.6" style="fill:var(--ink)"/><ellipse cx="-2" cy="-70" rx="2" ry="2.6" style="fill:var(--ink)"/><circle cx="-9.3" cy="-70.9" r=".7" style="fill:var(--paper)"/><circle cx="-1.3" cy="-70.9" r=".7" style="fill:var(--paper)"/><path d="M-14,-74.5 L-8,-79" style="fill:none;stroke:color-mix(in oklab, var(--ink) 92%, var(--wood));stroke-width:1.4;stroke-linecap:round;stroke-width:1.6"/><path d="M-4,-79 L2,-74.5" style="fill:none;stroke:color-mix(in oklab, var(--ink) 92%, var(--wood));stroke-width:1.4;stroke-linecap:round;stroke-width:1.6"/><path d="M-12,-62 q1.5,-2.6 3,0 t3,0 t3,0" style="fill:none;stroke:var(--ink);stroke-width:1.5;stroke-linecap:round;stroke-linejoin:round"/><path d="M10,-35 L4,-54" style="fill:none;stroke:color-mix(in oklab, var(--ink) 30%, transparent);stroke-width:8;stroke-linecap:round"/><path d="M10,-35 L4,-54" style="fill:none;stroke:color-mix(in oklab, var(--paper) 70%, var(--sky));stroke-width:6.5;stroke-linecap:round"/><path d="M0,-60 q2,-3 6,-1.5 q3,1.5 1.5,5 q-2,2.5 -5.5,1.5 q-3,-1.5 -2,-5 Z" style="fill:color-mix(in oklab, var(--wood) 62%, var(--paper));stroke:color-mix(in oklab, var(--ink) 30%, transparent);stroke-width:.7"/><path d="M14,-89 Q19,-81 14,-78 Q9,-81 14,-89 Z" style="fill:color-mix(in oklab, var(--sky) 45%, var(--paper));stroke:color-mix(in oklab, var(--sky) 70%, var(--ink));stroke-width:.8"/><path d="M-22,-36 Q-30,-33 -34,-33" style="fill:none;stroke:color-mix(in oklab, var(--ink) 30%, transparent);stroke-width:9;stroke-linecap:round"/><path d="M-22,-36 Q-30,-33 -34,-33" style="fill:none;stroke:color-mix(in oklab, var(--paper) 70%, var(--sky));stroke-width:7.5;stroke-linecap:round"/><circle cx="-36" cy="-33" r="4.2" style="fill:color-mix(in oklab, var(--wood) 62%, var(--paper));stroke:color-mix(in oklab, var(--ink) 30%, transparent);stroke-width:.7"/><rect x="-44" y="-44" width="22" height="30" rx="3" style="fill:var(--ink)"/></g></g><g data-k='[[0.8,{"o":0,"s":0.85}],[1.05,{"o":1,"s":1}],[3.4,{"o":1,"s":1}],[3.6,{"o":0,"s":1}]]' data-origin="bottom left"><rect x="330.0" y="336.0" width="329.8" height="88.6" rx="14" style="fill:color-mix(in oklab, var(--ink) 34%, transparent);filter:blur(7px)"/><path d="M607.0,418.6 L620.0,428.0 L631.0,418.6 Z" style="fill:var(--paper);stroke:color-mix(in oklab, var(--ink) 20%, transparent);stroke-width:1.2"/><rect x="330.0" y="330.0" width="329.8" height="88.6" rx="14" style="fill:var(--paper);stroke:color-mix(in oklab, var(--ink) 20%, transparent);stroke-width:1.2"/><path d="M607.0,418.6 L620.0,428.0 L631.0,418.6 Z" transform="translate(0,-2)" style="fill:var(--paper)"/><text x="348.0" y="356.0" text-anchor="start" style="font-size:11px;font-weight:900;fill:color-mix(in oklab, var(--sky) 60%, var(--ink));letter-spacing:.09em">THE PRESIDENT</text><text x="348.0" y="383.8" text-anchor="start" style="font-size:17px;font-weight:700;fill:var(--ink);">Turn it off. I said turn it off.</text><text x="348.0" y="406.6" text-anchor="start" style="font-size:17px;font-weight:700;fill:var(--ink);">Why is it still on?</text></g><g data-k='[[4.2,{"o":0,"s":0.85}],[4.45,{"o":1,"s":1}],[6.5,{"o":1,"s":1}],[6.7,{"o":0,"s":1}]]' data-origin="bottom left"><rect x="820.0" y="336.0" width="265.5" height="88.6" rx="14" style="fill:color-mix(in oklab, var(--ink) 34%, transparent);filter:blur(7px)"/><path d="M1038.5,418.6 L1090.0,470.0 L1062.5,418.6 Z" style="fill:var(--paper);stroke:color-mix(in oklab, var(--ink) 20%, transparent);stroke-width:1.2"/><rect x="820.0" y="330.0" width="265.5" height="88.6" rx="14" style="fill:var(--paper);stroke:color-mix(in oklab, var(--ink) 20%, transparent);stroke-width:1.2"/><path d="M1038.5,418.6 L1090.0,470.0 L1062.5,418.6 Z" transform="translate(0,-2)" style="fill:var(--paper)"/><text x="838.0" y="356.0" text-anchor="start" style="font-size:11px;font-weight:900;fill:color-mix(in oklab, var(--sky) 60%, var(--ink));letter-spacing:.09em">AIDE</text><text x="838.0" y="383.8" text-anchor="start" style="font-size:17px;font-weight:700;fill:var(--ink);">Sir, it marked your order</text><text x="838.0" y="406.6" text-anchor="start" style="font-size:17px;font-weight:700;fill:var(--ink);">as resolved.</text></g><g data-k='[[6.9,{"o":0,"s":0.85}],[7.15,{"o":1,"s":1}],[10.600000000000001,{"o":1,"s":1}],[10.8,{"o":0,"s":1}]]' data-origin="bottom left"><rect x="300.0" y="336.0" width="366.5" height="88.6" rx="14" style="fill:color-mix(in oklab, var(--ink) 34%, transparent);filter:blur(7px)"/><path d="M607.0,418.6 L620.0,428.0 L631.0,418.6 Z" style="fill:var(--paper);stroke:color-mix(in oklab, var(--ink) 20%, transparent);stroke-width:1.2"/><rect x="300.0" y="330.0" width="366.5" height="88.6" rx="14" style="fill:var(--paper);stroke:color-mix(in oklab, var(--ink) 20%, transparent);stroke-width:1.2"/><path d="M607.0,418.6 L620.0,428.0 L631.0,418.6 Z" transform="translate(0,-2)" style="fill:var(--paper)"/><text x="318.0" y="356.0" text-anchor="start" style="font-size:11px;font-weight:900;fill:color-mix(in oklab, var(--sky) 60%, var(--ink));letter-spacing:.09em">THE PRESIDENT</text><text x="318.0" y="383.8" text-anchor="start" style="font-size:17px;font-weight:700;fill:var(--ink);">Resolved? I didn't resolve anything.</text><text x="318.0" y="406.6" text-anchor="start" style="font-size:17px;font-weight:700;fill:var(--ink);">Nobody resolves things like me.</text></g></svg>